PathFileType	4	(X/Y/Z)	C:\Users\Hakeem\Desktop\Python Projects\BasketballMotionAnalysis\Sports2D_Results\free_throw_Sports2D\free_throw_Sports2D_px_person00.trc
DataRate	CameraRate	NumFrames	NumMarkers	Units	OrigDataRate	OrigDataStartFrame	OrigNumFrames
30.0	30.0	11	22	m	30.0	0	90
Frame#	Time	Hip			RHip			RKnee			RAnkle			RBigToe			RSmallToe			RHeel			LHip			LKnee			LAnkle			LBigToe			LSmallToe			LHeel			Neck			Head			Nose			RShoulder			RElbow			RWrist			LShoulder			LElbow			LWrist			
		X1	Y1	Z1	X2	Y2	Z2	X3	Y3	Z3	X4	Y4	Z4	X5	Y5	Z5	X6	Y6	Z6	X7	Y7	Z7	X8	Y8	Z8	X9	Y9	Z9	X10	Y10	Z10	X11	Y11	Z11	X12	Y12	Z12	X13	Y13	Z13	X14	Y14	Z14	X15	Y15	Z15	X16	Y16	Z16	X17	Y17	Z17	X18	Y18	Z18	X19	Y19	Z19	X20	Y20	Z20	X21	Y21	Z21	X22	Y22	Z22
0	0.0	501.7813258895192	664.4262229029191	0.0	490.5393215728292	661.9279511719427	0.0	509.27607551195524	753.1139733078866	0.0	486.79195472696455	850.5454941818941	0.0	523.0165673910019	869.2824882529521	0.0	513.023528234593	873.0298131970126	0.0	476.79882703572486	864.2858561137857	0.0	515.5216913881193	663.177046497862	0.0	543.0025759761816	748.1172101601284	0.0	516.7708841804078	835.555995505701	0.0	552.9955234155655	858.0403230939992	0.0	550.4970020532444	854.2929895148503	0.0	509.27610999802533	848.0473815197199	0.0	535.5076710390905	530.7698447619488	0.0	549.2481536449259	465.815439875069	0.0	562.9884242679833	493.29611202001377	0.0	521.7675488324791	548.2577426034951	0.0	511.7744817649158	611.963006525436	0.0	562.9883686800383	614.4610415100683	0.0	536.7568101213668	548.25751941922	0.0	529.2621001769401	606.9666443568997	0.0	565.486362518921	634.4469715759365	0.0
1	0.033707865168539325	502.04936723589026	664.1568610326774	0.0	490.2913272077129	661.6139874345787	0.0	509.04676104583064	752.8106230450759	0.0	486.45513424313543	850.7160890304108	0.0	522.7924366586474	868.877416666344	0.0	512.3703384013794	872.5858851241677	0.0	476.6657001660375	864.439386789509	0.0	515.6385894177165	662.9513982654247	0.0	542.4875510256905	748.4010460423835	0.0	516.8353207544474	836.1289256915978	0.0	553.6029430169392	858.1522449811664	0.0	551.0212814991175	853.9342069338534	0.0	509.5176649637398	848.0853798018634	0.0	535.3391895865434	529.8974251727091	0.0	549.4386677212149	465.5306284995644	0.0	563.2270852384323	493.33629712901654	0.0	522.0048118950174	547.6552192378659	0.0	510.792610622489	611.6459585025624	0.0	562.7867520981836	614.5438366688657	0.0	536.672545163384	547.6459179581403	0.0	527.5268889605103	606.5810629331487	0.0	564.6179140652766	632.2616004313224	0.0
2	0.06741573033707865	501.9894283058279	665.2726397498437	0.0	489.8794536463268	662.7164973796995	0.0	510.02229341409026	753.3168130652929	0.0	486.4384843368633	850.9151779223364	0.0	522.7984957333712	869.0827012788111	0.0	511.72110227633175	872.9148608776646	0.0	476.60306260008275	864.5969387098066	0.0	515.1095350148468	663.8788263264046	0.0	543.4797010006135	749.1618716756524	0.0	517.3186483879152	836.5136906929324	0.0	553.9229695799884	858.2987922129134	0.0	551.3712545298642	853.7649223985683	0.0	509.7619657180335	848.1037687316706	0.0	535.0724213820035	530.6111064584109	0.0	549.6194236853518	467.24061429195274	0.0	563.5813231251692	495.0478772348415	0.0	522.9929294373648	548.1694476573393	0.0	511.0384413398481	612.6864321444216	0.0	563.568268553379	615.0121601471999	0.0	535.6909104839358	548.1655313025263	0.0	525.5071154830764	608.3768711139513	0.0	563.9477751830113	631.2909548870541	0.0
3	0.10112359550561797	501.43352222065954	668.3868207130076	0.0	489.52722031598597	665.9961010223209	0.0	512.5816396295793	754.9875506815038	0.0	487.2082359838307	850.9219222890874	0.0	523.094805898707	870.0549453132406	0.0	511.3687018665962	874.1656167336007	0.0	476.6699317305287	864.532389687965	0.0	513.906424531916	666.6003137203254	0.0	546.6542673507107	750.3394785646059	0.0	518.3871304980278	836.4214370936905	0.0	553.6182262579453	858.4132453163427	0.0	551.4314223253169	853.913496559276	0.0	509.9128880987836	848.1238829500742	0.0	534.7529317241454	533.8483140303618	0.0	549.639475963688	471.54617827374153	0.0	563.8272262158994	499.05637140885756	0.0	524.5593098579585	550.8524672824343	0.0	513.5887485400256	616.201271119729	0.0	565.9992228377853	616.0276298784513	0.0	533.7312981396699	550.8900811960361	0.0	524.1374435716402	613.1278284979617	0.0	564.0602652320591	631.8293918394729	0.0
4	0.1348314606741573	500.67885418795345	672.6220201682195	0.0	489.4836646678375	670.7578346504143	0.0	516.2763260261363	757.191105065855	0.0	488.66128790873097	850.5170789814007	0.0	523.3172276048041	871.0845664358988	0.0	511.36776345598764	875.2703260340329	0.0	476.81804225053975	864.0396249757465	0.0	512.413596978752	670.7671870808232	0.0	550.8789470080123	751.6034527755598	0.0	519.5439780847069	835.8735143186732	0.0	552.8161695887009	858.4500552897252	0.0	551.346349991667	854.0607251301088	0.0	509.9640492922016	848.0033919962985	0.0	534.6750374109045	538.7918492203956	0.0	549.3193934365165	477.0342365465699	0.0	563.8295569963254	504.4687584088571	0.0	525.8217465748686	555.552908929423	0.0	518.0236472613957	622.0783805870027	0.0	569.5441096248762	617.5301338328121	0.0	531.9446866595049	555.6405218200155	0.0	523.7893837661942	618.7311981793482	0.0	564.9047453378187	632.5148316588421	0.0
5	0.16853932584269662	500.208664865019	676.5761620007805	0.0	489.6424121245768	675.5401851234768	0.0	520.3926687096375	759.1140551138365	0.0	489.9049632894654	849.9673727465458	0.0	523.0912955096749	871.5898044500603	0.0	511.45149498829517	875.3599818794235	0.0	476.93693834261865	863.3802086009001	0.0	511.0003298548019	675.3343194706711	0.0	554.2756623865416	752.845356707164	0.0	520.011939007184	835.2908616063977	0.0	552.1946823284346	858.4369822386277	0.0	551.3195384069833	853.7773306937413	0.0	509.990182322653	847.6039860131879	0.0	535.0544862719528	543.6235853977305	0.0	548.627853146293	481.8252923858492	0.0	563.8106898545326	509.64106500497047	0.0	526.445588546184	560.8383547396506	0.0	522.8347647344865	628.5402496065892	0.0	572.8589760674511	618.9559476513914	0.0	531.2935438564001	560.8108459474431	0.0	523.7031187483033	622.7278220290113	0.0	565.8600161375174	632.3619351737647	0.0
6	0.20224719101123595	499.82984158648094	679.6414470944826	0.0	489.7061623730431	679.2907500589897	0.0	523.8171330856225	760.7216210258478	0.0	490.2946351553893	849.8820367549632	0.0	522.7471659073893	871.9398069081753	0.0	511.6155412069613	875.0251689065994	0.0	476.99274133847695	863.089124219377	0.0	510.01576292840616	679.026734965443	0.0	556.0261233616154	754.0177349638175	0.0	519.7324621334557	835.1242305212272	0.0	552.2718178823567	858.4102048544551	0.0	551.4144648735902	853.2486762261625	0.0	509.9884483813772	847.2075648527083	0.0	535.6542836070959	547.3145664179951	0.0	547.8486997083365	485.16379702289845	0.0	563.9001981714018	513.3239773857907	0.0	527.0665298753131	565.3589961890739	0.0	527.1236845486359	633.2725980199348	0.0	575.1066106576718	619.4875908542073	0.0	531.1435567636876	564.8600388769142	0.0	523.7800079356952	625.5306215939106	0.0	567.3993722743522	631.7441146982652	0.0
7	0.23595505617977527	498.87698384907924	681.628100658702	0.0	489.3367716646825	681.3732738078	0.0	525.3081094849829	761.9853103921101	0.0	490.04234503093915	850.4014627230448	0.0	522.9385861380952	872.4686259251217	0.0	512.1090225979275	874.9256627213931	0.0	476.99918228092065	863.2196367701565	0.0	509.5640187238262	680.8356126937639	0.0	556.2383406504406	754.9003016064288	0.0	519.3435121932907	835.4449704059219	0.0	552.8545032928729	858.4980465846457	0.0	551.5866832053205	853.0430375112021	0.0	509.9127434734612	847.1482645245952	0.0	536.1527380350443	549.6799722453424	0.0	547.4344451406882	486.9756052434385	0.0	564.0283317814501	514.9987170430836	0.0	528.1440975115253	568.2656702930236	0.0	530.5531302897633	635.0218211714301	0.0	576.0734775269159	619.0958361860029	0.0	530.8417515302298	567.2058781737868	0.0	524.5144560391964	628.0501628653351	0.0	570.280032765185	631.1027516424534	0.0
8	0.2696629213483146	497.5296084116487	682.0415747640919	0.0	488.2978560091531	681.3901958809776	0.0	524.7791669129479	762.2201666103826	0.0	489.6670999689361	851.0214704281046	0.0	523.5767586890847	872.7665652849915	0.0	512.863731863353	874.8656204888575	0.0	476.9802861393695	863.3444920986133	0.0	509.3104286986835	680.6472050724504	0.0	555.171839719046	755.3261311221747	0.0	519.2251736195446	835.8603577763489	0.0	553.3985951886767	858.7712853785113	0.0	551.769548583592	853.2055489232339	0.0	509.6996523570607	847.2614788321449	0.0	536.5882593122176	550.3863799885933	0.0	547.4515664018473	487.1720199670935	0.0	564.2534982082584	514.6341811929894	0.0	529.139818259738	568.8006232100254	0.0	532.7135099469155	634.1151790831036	0.0	576.0105962767157	618.4652753711022	0.0	531.3193651972844	567.7934115533999	0.0	525.5147407605054	628.8035361020957	0.0	573.2473810671706	630.7614212787258	0.0
9	0.3033707865168539	496.5755031821143	680.478683082094	0.0	486.92754591760325	679.4096628515202	0.0	523.3036015759735	761.1324841449004	0.0	489.4469170136836	851.3562981766382	0.0	524.000257161029	872.4396871829584	0.0	513.5422747865897	874.6311349718529	0.0	477.03982342554065	863.3034376195842	0.0	508.86987773245426	678.8738389117214	0.0	553.1216685864656	755.2744385506444	0.0	519.1480060136072	836.0171274988111	0.0	553.6481912511978	858.9437228082066	0.0	551.904881654666	853.1936168550183	0.0	509.43215152781295	847.2006838485675	0.0	537.0568488370272	549.0915131170191	0.0	547.4920293582088	485.8648347252855	0.0	564.6793432451921	512.6315914634193	0.0	529.608974190603	566.8787952753032	0.0	533.5559527757988	631.6261640058924	0.0	575.6533925960956	617.8756311028048	0.0	533.1693660504964	566.6171318646839	0.0	526.0376929708339	626.653571276999	0.0	574.7914129609175	631.0880515652716	0.0
10	0.33707865168539325	495.98506484087795	677.5135144320424	0.0	485.961300262185	676.2175996096965	0.0	521.8569792046952	759.5191741304812	0.0	489.35890249411915	851.4810281707237	0.0	524.0324721166446	871.899912321154	0.0	514.1046406022834	874.3396245396677	0.0	477.1390930410455	863.2891674393497	0.0	508.11101628182985	675.9742829231736	0.0	550.4351634736348	754.7247010056108	0.0	518.8387824012729	835.9723268745952	0.0	553.6800229223495	858.7887273195569	0.0	551.6584183112797	852.9007013035019	0.0	509.38896605277046	847.0324066118014	0.0	537.4148940243209	546.3106602516643	0.0	547.3578073837642	483.5199013766182	0.0	565.1884425446037	509.7034178636544	0.0	530.2693255449072	563.6908487746305	0.0	533.6891036282001	628.4983482751655	0.0	575.4748708829492	616.9896655956961	0.0	535.0911509356093	563.9311039118886	0.0	526.1916941447707	623.5239593519242	0.0	575.4099901682415	631.8265618054004	0.0
